<svg xmlns="http://www.w3.org/2000/svg" version="1.1" xmlns:xlink="http://www.w3.org/1999/xlink" xmlns:svgjs="http://svgjs.com/svgjs" width="512" height="512" x="0" y="0" viewBox="0 0 50 50" style="enable-background:new 0 0 512 512" xml:space="preserve" class=""><g><g xmlns="http://www.w3.org/2000/svg"><path d="m46 6.5h-42c-1.379 0-2.5 1.122-2.5 2.5v2.545c0 1.378 1.121 2.5 2.5 2.5h42c1.379 0 2.5-1.122 2.5-2.5v-2.545c0-1.378-1.121-2.5-2.5-2.5zm1.5 5.045c0 .827-.673 1.5-1.5 1.5h-42c-.827 0-1.5-.673-1.5-1.5v-2.545c0-.827.673-1.5 1.5-1.5h42c.827 0 1.5.673 1.5 1.5z" fill="#ffd200" data-original="#000000" class=""></path><path d="m46 21.227h-42c-1.379 0-2.5 1.122-2.5 2.5v2.546c0 1.378 1.121 2.5 2.5 2.5h42c1.379 0 2.5-1.122 2.5-2.5v-2.546c0-1.378-1.121-2.5-2.5-2.5zm1.5 5.046c0 .827-.673 1.5-1.5 1.5h-42c-.827 0-1.5-.673-1.5-1.5v-2.546c0-.827.673-1.5 1.5-1.5h42c.827 0 1.5.673 1.5 1.5z" fill="#ffd200" data-original="#000000" class=""></path><path d="m46 35.955h-42c-1.379 0-2.5 1.122-2.5 2.5v2.545c0 1.378 1.121 2.5 2.5 2.5h42c1.379 0 2.5-1.122 2.5-2.5v-2.545c0-1.379-1.121-2.5-2.5-2.5zm1.5 5.045c0 .827-.673 1.5-1.5 1.5h-42c-.827 0-1.5-.673-1.5-1.5v-2.545c0-.827.673-1.5 1.5-1.5h42c.827 0 1.5.673 1.5 1.5z" fill="#ffd200" data-original="#000000" class=""></path></g></g></svg>